<svg width="290" height="51" viewBox="0 0 290 51" fill="none" xmlns="http://www.w3.org/2000/svg">
<g clip-path="url(#clip0_35_22773)">
<path d="M26.6448 1.06497L2.17049 23.3357C0.85471 24.533 0.85471 26.4669 2.17049 27.6642L26.6448 49.9349C27.9605 51.1323 30.0857 51.1323 31.4015 49.9349L41.6632 40.5971C42.8416 39.5249 42.8416 37.7863 41.6632 36.7141C40.4849 35.6418 38.5743 35.6418 37.396 36.7141L29.6166 43.793C29.2891 44.091 28.7921 44.091 28.4646 43.793L8.92015 26.0082C8.59266 25.7102 8.59266 25.2579 8.92015 24.9599L28.4646 7.17512C28.7921 6.87711 29.2891 6.87711 29.6166 7.17512L37.396 14.254C38.5743 15.3263 40.4849 15.3263 41.6632 14.254C42.8416 13.1818 42.8416 11.4432 41.6632 10.371L31.4026 1.03417C30.0815 -0.137228 27.9555 -0.127745 26.6448 1.06497Z" fill="url(#paint0_linear_35_22773)"/>
<path d="M26.6448 1.06497L2.17049 23.3357C0.85471 24.533 0.85471 26.4669 2.17049 27.6642L26.6448 49.9349C27.9605 51.1323 30.0857 51.1323 31.4015 49.9349L41.6632 40.5971C42.8416 39.5249 42.8416 37.7863 41.6632 36.7141C40.4849 35.6418 38.5743 35.6418 37.396 36.7141L29.6166 43.793C29.2891 44.091 28.7921 44.091 28.4646 43.793L8.92015 26.0082C8.59266 25.7102 8.59266 25.2579 8.92015 24.9599L28.4646 7.17512C29.2801 6.53489 30.6106 5.23812 32.5644 4.93483C34.0165 4.70943 35.604 5.20553 37.3269 6.42314C36.175 5.37496 34.2003 3.57864 31.4026 1.03417C30.0815 -0.137228 27.9555 -0.127745 26.6448 1.06497Z" fill="url(#paint1_linear_35_22773)"/>
<path d="M44.032 34.6429C45.2103 35.7151 47.1209 35.7151 48.2992 34.6429L55.8688 27.7548C57.1846 26.5575 57.1846 24.6237 55.8689 23.4265L48.2334 16.5031C47.0522 15.432 45.1411 15.4336 43.962 16.5065C42.7837 17.5788 42.7837 19.3173 43.962 20.3896L49.1191 25.0823C49.4466 25.3803 49.4466 25.8326 49.1191 26.1306L44.032 30.7598C42.8536 31.8321 42.8536 33.5706 44.032 34.6429Z" fill="url(#paint2_linear_35_22773)"/>
<path d="M29.1454 31.6243C32.7949 31.6243 35.7534 28.9322 35.7534 25.6112C35.7534 22.2903 32.7949 19.5981 29.1454 19.5981C25.4959 19.5981 22.5373 22.2903 22.5373 25.6112C22.5373 28.9322 25.4959 31.6243 29.1454 31.6243Z" fill="url(#paint3_linear_35_22773)"/>
</g>
<path d="M86.2853 11.5V35.5H79.7697V11.5H86.2853ZM96.1007 25.375V35.5H89.6319V17.5H95.7726V20.9219H95.9601C96.3507 19.7812 97.0382 18.8867 98.0226 18.2383C99.0148 17.5898 100.171 17.2656 101.491 17.2656C102.765 17.2656 103.87 17.5586 104.808 18.1445C105.753 18.7227 106.484 19.5195 106.999 20.5352C107.523 21.5508 107.78 22.7109 107.773 24.0156V35.5H101.304V25.375C101.312 24.4844 101.085 23.7852 100.624 23.2773C100.171 22.7695 99.5382 22.5156 98.7257 22.5156C98.1944 22.5156 97.7296 22.6328 97.3312 22.8672C96.9405 23.0937 96.6398 23.4219 96.4288 23.8516C96.2179 24.2734 96.1085 24.7812 96.1007 25.375ZM117.6 25.375V35.5H111.131V17.5H117.272V20.9219H117.459C117.85 19.7812 118.537 18.8867 119.522 18.2383C120.514 17.5898 121.67 17.2656 122.99 17.2656C124.264 17.2656 125.369 17.5586 126.307 18.1445C127.252 18.7227 127.982 19.5195 128.498 20.5352C129.022 21.5508 129.279 22.7109 129.272 24.0156V35.5H122.803V25.375C122.811 24.4844 122.584 23.7852 122.123 23.2773C121.67 22.7695 121.037 22.5156 120.225 22.5156C119.693 22.5156 119.229 22.6328 118.83 22.8672C118.44 23.0937 118.139 23.4219 117.928 23.8516C117.717 24.2734 117.607 24.7812 117.6 25.375ZM141.302 35.8281C139.349 35.8281 137.677 35.4414 136.286 34.668C134.896 33.8867 133.829 32.8008 133.087 31.4102C132.345 30.0117 131.974 28.3906 131.974 26.5469C131.974 24.7031 132.345 23.0859 133.087 21.6953C133.829 20.2969 134.896 19.2109 136.286 18.4375C137.677 17.6562 139.349 17.2656 141.302 17.2656C143.255 17.2656 144.927 17.6562 146.317 18.4375C147.708 19.2109 148.774 20.2969 149.517 21.6953C150.259 23.0859 150.63 24.7031 150.63 26.5469C150.63 28.3906 150.259 30.0117 149.517 31.4102C148.774 32.8008 147.708 33.8867 146.317 34.668C144.927 35.4414 143.255 35.8281 141.302 35.8281ZM141.349 31.0469C141.896 31.0469 142.368 30.8633 142.767 30.4961C143.165 30.1289 143.474 29.6055 143.692 28.9258C143.911 28.2461 144.021 27.4375 144.021 26.5C144.021 25.5547 143.911 24.7461 143.692 24.0742C143.474 23.3945 143.165 22.8711 142.767 22.5039C142.368 22.1367 141.896 21.9531 141.349 21.9531C140.771 21.9531 140.274 22.1367 139.86 22.5039C139.446 22.8711 139.13 23.3945 138.911 24.0742C138.692 24.7461 138.583 25.5547 138.583 26.5C138.583 27.4375 138.692 28.2461 138.911 28.9258C139.13 29.6055 139.446 30.1289 139.86 30.4961C140.274 30.8633 140.771 31.0469 141.349 31.0469ZM171.013 17.5L164.966 35.5H157.466L151.419 17.5H158.216L161.122 29.4062H161.31L164.216 17.5H171.013ZM177.582 35.7813C176.434 35.7813 175.418 35.5938 174.535 35.2187C173.66 34.8359 172.973 34.2578 172.473 33.4844C171.973 32.7109 171.723 31.7266 171.723 30.5312C171.723 29.5469 171.891 28.707 172.227 28.0117C172.562 27.3086 173.031 26.7344 173.633 26.2891C174.234 25.8437 174.934 25.5039 175.73 25.2695C176.535 25.0352 177.402 24.8828 178.332 24.8125C179.34 24.7344 180.148 24.6406 180.758 24.5312C181.375 24.4141 181.82 24.2539 182.094 24.0508C182.367 23.8398 182.504 23.5625 182.504 23.2187V23.1719C182.504 22.7031 182.324 22.3437 181.965 22.0938C181.605 21.8437 181.144 21.7187 180.582 21.7187C179.965 21.7187 179.461 21.8555 179.07 22.1289C178.687 22.3945 178.457 22.8047 178.379 23.3594H172.426C172.504 22.2656 172.852 21.2578 173.469 20.3359C174.094 19.4062 175.004 18.6641 176.199 18.1094C177.394 17.5469 178.887 17.2656 180.676 17.2656C181.965 17.2656 183.121 17.418 184.144 17.7227C185.168 18.0195 186.039 18.4375 186.758 18.9766C187.477 19.5078 188.023 20.1328 188.398 20.8516C188.781 21.5625 188.973 22.3359 188.973 23.1719V35.5H182.926V32.9687H182.785C182.426 33.6406 181.988 34.1836 181.473 34.5977C180.965 35.0117 180.383 35.3125 179.727 35.5C179.078 35.6875 178.363 35.7813 177.582 35.7813ZM179.691 31.7031C180.184 31.7031 180.644 31.6016 181.074 31.3984C181.512 31.1953 181.867 30.9023 182.141 30.5195C182.414 30.1367 182.551 29.6719 182.551 29.125V27.625C182.379 27.6953 182.195 27.7617 182 27.8242C181.812 27.8867 181.609 27.9453 181.391 28C181.18 28.0547 180.953 28.1055 180.711 28.1523C180.477 28.1992 180.23 28.2422 179.973 28.2812C179.473 28.3594 179.062 28.4883 178.742 28.668C178.43 28.8398 178.195 29.0547 178.039 29.3125C177.891 29.5625 177.816 29.8437 177.816 30.1562C177.816 30.6562 177.992 31.0391 178.344 31.3047C178.695 31.5703 179.144 31.7031 179.691 31.7031ZM205.072 19C205.01 18.2187 204.717 17.6094 204.193 17.1719C203.678 16.7344 202.892 16.5156 201.838 16.5156C201.166 16.5156 200.615 16.5977 200.185 16.7617C199.764 16.918 199.451 17.1328 199.248 17.4062C199.045 17.6797 198.939 17.9922 198.932 18.3437C198.916 18.6328 198.967 18.8945 199.084 19.1289C199.209 19.3555 199.404 19.5625 199.67 19.75C199.935 19.9297 200.275 20.0937 200.689 20.2422C201.103 20.3906 201.596 20.5234 202.166 20.6406L204.135 21.0625C205.463 21.3437 206.6 21.7148 207.545 22.1758C208.49 22.6367 209.264 23.1797 209.865 23.8047C210.467 24.4219 210.908 25.1172 211.189 25.8906C211.478 26.6641 211.627 27.5078 211.635 28.4219C211.627 30 211.232 31.3359 210.451 32.4297C209.67 33.5234 208.553 34.3555 207.1 34.9258C205.654 35.4961 203.916 35.7813 201.885 35.7813C199.799 35.7813 197.978 35.4727 196.424 34.8555C194.877 34.2383 193.674 33.2891 192.814 32.0078C191.963 30.7187 191.533 29.0703 191.525 27.0625H197.713C197.752 27.7969 197.935 28.4141 198.264 28.9141C198.592 29.4141 199.053 29.793 199.646 30.0508C200.248 30.3086 200.963 30.4375 201.791 30.4375C202.486 30.4375 203.068 30.3516 203.537 30.1797C204.006 30.0078 204.361 29.7695 204.603 29.4648C204.846 29.1602 204.971 28.8125 204.978 28.4219C204.971 28.0547 204.85 27.7344 204.615 27.4609C204.389 27.1797 204.014 26.9297 203.49 26.7109C202.967 26.4844 202.26 26.2734 201.369 26.0781L198.978 25.5625C196.853 25.1016 195.178 24.332 193.951 23.2539C192.732 22.168 192.127 20.6875 192.135 18.8125C192.127 17.2891 192.533 15.957 193.353 14.8164C194.182 13.668 195.326 12.7734 196.787 12.1328C198.256 11.4922 199.939 11.1719 201.838 11.1719C203.775 11.1719 205.451 11.4961 206.865 12.1445C208.279 12.793 209.369 13.707 210.135 14.8867C210.908 16.0586 211.299 17.4297 211.307 19H205.072ZM226.044 27.625V17.5H232.513V35.5H226.372V32.0781H226.184C225.794 33.2266 225.11 34.125 224.134 34.7734C223.157 35.4141 221.997 35.7344 220.653 35.7344C219.395 35.7344 218.294 35.4453 217.349 34.8672C216.411 34.2891 215.681 33.4922 215.157 32.4766C214.641 31.4609 214.38 30.2969 214.372 28.9844V17.5H220.841V27.625C220.849 28.5156 221.075 29.2148 221.52 29.7227C221.974 30.2305 222.606 30.4844 223.419 30.4844C223.958 30.4844 224.423 30.3711 224.813 30.1445C225.212 29.9102 225.516 29.582 225.727 29.1602C225.946 28.7305 226.052 28.2187 226.044 27.625ZM235.968 35.5V17.5H242.436V35.5H235.968ZM239.202 15.625C238.327 15.625 237.577 15.3359 236.952 14.7578C236.327 14.1797 236.014 13.4844 236.014 12.6719C236.014 11.8594 236.327 11.1641 236.952 10.5859C237.577 10.0078 238.327 9.71875 239.202 9.71875C240.085 9.71875 240.835 10.0078 241.452 10.5859C242.077 11.1641 242.389 11.8594 242.389 12.6719C242.389 13.4844 242.077 14.1797 241.452 14.7578C240.835 15.3359 240.085 15.625 239.202 15.625ZM256.632 17.5V22.1875H244.772V17.5H256.632ZM247.069 13.1875H253.538V29.7109C253.538 29.9609 253.581 30.1719 253.667 30.3438C253.753 30.5078 253.886 30.6328 254.065 30.7187C254.245 30.7969 254.475 30.8359 254.757 30.8359C254.952 30.8359 255.179 30.8125 255.436 30.7656C255.702 30.7187 255.897 30.6797 256.022 30.6484L256.96 35.1953C256.671 35.2812 256.257 35.3867 255.718 35.5117C255.186 35.6367 254.554 35.7188 253.819 35.7578C252.335 35.8359 251.089 35.6836 250.081 35.3008C249.073 34.9102 248.315 34.2969 247.807 33.4609C247.3 32.625 247.054 31.5781 247.069 30.3203V13.1875ZM267.868 35.8281C265.946 35.8281 264.29 35.4609 262.899 34.7266C261.516 33.9844 260.45 32.9219 259.7 31.5391C258.958 30.1484 258.587 28.4844 258.587 26.5469C258.587 24.6875 258.962 23.0625 259.712 21.6719C260.462 20.2812 261.52 19.1992 262.887 18.4258C264.255 17.6523 265.868 17.2656 267.727 17.2656C269.087 17.2656 270.317 17.4766 271.419 17.8984C272.52 18.3203 273.462 18.9336 274.243 19.7383C275.024 20.5352 275.626 21.5039 276.048 22.6445C276.469 23.7852 276.68 25.0703 276.68 26.5V28H260.602V24.4375H270.727C270.719 23.9219 270.587 23.4687 270.329 23.0781C270.079 22.6797 269.739 22.3711 269.309 22.1523C268.887 21.9258 268.407 21.8125 267.868 21.8125C267.344 21.8125 266.864 21.9258 266.427 22.1523C265.989 22.3711 265.637 22.6758 265.372 23.0664C265.114 23.457 264.977 23.9141 264.962 24.4375V28.2812C264.962 28.8594 265.083 29.375 265.325 29.8281C265.567 30.2813 265.915 30.6367 266.368 30.8945C266.821 31.1523 267.368 31.2813 268.009 31.2813C268.454 31.2813 268.86 31.2187 269.227 31.0937C269.602 30.9687 269.923 30.7891 270.188 30.5547C270.454 30.3125 270.649 30.0234 270.774 29.6875H276.68C276.477 30.9375 275.997 32.0234 275.239 32.9453C274.481 33.8594 273.477 34.5703 272.227 35.0781C270.985 35.5781 269.532 35.8281 267.868 35.8281Z" fill="black" fill-opacity="0.85"/>
<defs>
<linearGradient id="paint0_linear_35_22773" x1="26.8713" y1="0.162965" x2="48.8982" y2="14.9333" gradientUnits="userSpaceOnUse">
<stop stop-color="#4285EB"/>
<stop offset="1" stop-color="#2EC7FF"/>
</linearGradient>
<linearGradient id="paint1_linear_35_22773" x1="29.9908" y1="0.162964" x2="20.4043" y2="54.5658" gradientUnits="userSpaceOnUse">
<stop stop-color="#29CDFF"/>
<stop offset="0.378601" stop-color="#148EFF"/>
<stop offset="1" stop-color="#0A60FF"/>
</linearGradient>
<linearGradient id="paint2_linear_35_22773" x1="52.6798" y1="13.1389" x2="39.6374" y2="35.5358" gradientUnits="userSpaceOnUse">
<stop stop-color="#FA816E"/>
<stop offset="0.414726" stop-color="#F74A5C"/>
<stop offset="1" stop-color="#F51D2C"/>
</linearGradient>
<linearGradient id="paint3_linear_35_22773" x1="31.5412" y1="15.3059" x2="27.3746" y2="33.6068" gradientUnits="userSpaceOnUse">
<stop stop-color="#FA8E7D"/>
<stop offset="0.512635" stop-color="#F74A5C"/>
<stop offset="1" stop-color="#F51D2C"/>
</linearGradient>
<clipPath id="clip0_35_22773">
<rect width="56" height="51" fill="white" transform="translate(1)"/>
</clipPath>
</defs>
</svg>
