<svg width="156" height="48" viewBox="0 0 156 48" fill="none" xmlns="http://www.w3.org/2000/svg">
<g clip-path="url(#clip0_9_102)">
<path d="M14.6541 8.6682L0.668824 22.642C-0.0830488 23.3933 -0.0830488 24.6067 0.668824 25.3579L14.6541 39.3317C15.406 40.083 16.6204 40.083 17.3723 39.3317L23.2361 33.4727C23.9095 32.7999 23.9095 31.7091 23.2361 31.0363C22.5627 30.3635 21.471 30.3635 20.7977 31.0363L16.3523 35.4779C16.1652 35.6649 15.8812 35.6649 15.694 35.4779L4.52577 24.3189C4.33863 24.1319 4.33863 23.8481 4.52577 23.6611L15.694 12.502C15.8812 12.315 16.1652 12.315 16.3523 12.502L20.7977 16.9437C21.471 17.6165 22.5627 17.6165 23.2361 16.9437C23.9095 16.2709 23.9095 15.1801 23.2361 14.5073L17.3729 8.64888C16.618 7.91388 15.4031 7.91983 14.6541 8.6682Z" fill="url(#paint0_linear_9_102)"/>
<path d="M14.6541 8.6682L0.668824 22.642C-0.0830488 23.3933 -0.0830488 24.6067 0.668824 25.3579L14.6541 39.3317C15.406 40.083 16.6204 40.083 17.3723 39.3317L23.2361 33.4727C23.9095 32.7999 23.9095 31.7091 23.2361 31.0363C22.5627 30.3635 21.471 30.3635 20.7977 31.0363L16.3523 35.4779C16.1652 35.6649 15.8812 35.6649 15.694 35.4779L4.52577 24.3189C4.33863 24.1319 4.33863 23.8481 4.52577 23.6611L15.694 12.502C16.16 12.1003 16.9203 11.2866 18.0368 11.0963C18.8665 10.9549 19.7737 11.2662 20.7582 12.0302C20.1 11.3725 18.9715 10.2454 17.3729 8.64888C16.618 7.91388 15.4031 7.91983 14.6541 8.6682Z" fill="url(#paint1_linear_9_102)"/>
<path d="M24.5897 29.7366C25.2631 30.4095 26.3548 30.4095 27.0282 29.7366L31.3536 25.4148C32.1055 24.6635 32.1055 23.4501 31.3537 22.6989L26.9905 18.3548C26.3156 17.6828 25.2235 17.6838 24.5498 18.357C23.8764 19.0298 23.8764 20.1206 24.5498 20.7934L27.4967 23.7379C27.6838 23.9249 27.6838 24.2087 27.4967 24.3957L24.5897 27.3002C23.9164 27.973 23.9164 29.0638 24.5897 29.7366Z" fill="url(#paint2_linear_9_102)"/>
<path d="M16.083 27.8428C18.1685 27.8428 19.8591 26.1536 19.8591 24.0698C19.8591 21.9861 18.1685 20.2969 16.083 20.2969C13.9976 20.2969 12.307 21.9861 12.307 24.0698C12.307 26.1536 13.9976 27.8428 16.083 27.8428Z" fill="url(#paint3_linear_9_102)"/>
</g>
<path d="M47.9463 17.2031V30H45.3184V17.2031H47.9463ZM52.7363 22.5205V30H50.2051V20.4902H52.5781L52.7363 22.5205ZM52.3672 24.9111H51.6816C51.6816 24.208 51.7725 23.5752 51.9541 23.0127C52.1357 22.4443 52.3906 21.9609 52.7188 21.5625C53.0469 21.1582 53.4365 20.8506 53.8877 20.6396C54.3447 20.4229 54.8545 20.3145 55.417 20.3145C55.8623 20.3145 56.2695 20.3789 56.6387 20.5078C57.0078 20.6367 57.3242 20.8418 57.5879 21.123C57.8574 21.4043 58.0625 21.7764 58.2031 22.2393C58.3496 22.7021 58.4229 23.2676 58.4229 23.9355V30H55.874V23.9268C55.874 23.5049 55.8154 23.1768 55.6982 22.9424C55.5811 22.708 55.4082 22.5439 55.1797 22.4502C54.957 22.3506 54.6816 22.3008 54.3535 22.3008C54.0137 22.3008 53.7178 22.3682 53.4658 22.5029C53.2197 22.6377 53.0146 22.8252 52.8506 23.0654C52.6924 23.2998 52.5723 23.5752 52.4902 23.8916C52.4082 24.208 52.3672 24.5479 52.3672 24.9111ZM62.8262 22.5205V30H60.2949V20.4902H62.668L62.8262 22.5205ZM62.457 24.9111H61.7715C61.7715 24.208 61.8623 23.5752 62.0439 23.0127C62.2256 22.4443 62.4805 21.9609 62.8086 21.5625C63.1367 21.1582 63.5264 20.8506 63.9775 20.6396C64.4346 20.4229 64.9443 20.3145 65.5068 20.3145C65.9521 20.3145 66.3594 20.3789 66.7285 20.5078C67.0977 20.6367 67.4141 20.8418 67.6777 21.123C67.9473 21.4043 68.1523 21.7764 68.293 22.2393C68.4395 22.7021 68.5127 23.2676 68.5127 23.9355V30H65.9639V23.9268C65.9639 23.5049 65.9053 23.1768 65.7881 22.9424C65.6709 22.708 65.498 22.5439 65.2695 22.4502C65.0469 22.3506 64.7715 22.3008 64.4434 22.3008C64.1035 22.3008 63.8076 22.3682 63.5557 22.5029C63.3096 22.6377 63.1045 22.8252 62.9404 23.0654C62.7822 23.2998 62.6621 23.5752 62.5801 23.8916C62.498 24.208 62.457 24.5479 62.457 24.9111ZM70.0332 25.3418V25.1572C70.0332 24.46 70.1328 23.8184 70.332 23.2324C70.5312 22.6406 70.8213 22.1279 71.2021 21.6943C71.583 21.2607 72.0518 20.9238 72.6084 20.6836C73.165 20.4375 73.8037 20.3145 74.5244 20.3145C75.2451 20.3145 75.8867 20.4375 76.4492 20.6836C77.0117 20.9238 77.4834 21.2607 77.8643 21.6943C78.251 22.1279 78.5439 22.6406 78.7432 23.2324C78.9424 23.8184 79.042 24.46 79.042 25.1572V25.3418C79.042 26.0332 78.9424 26.6748 78.7432 27.2666C78.5439 27.8525 78.251 28.3652 77.8643 28.8047C77.4834 29.2383 77.0146 29.5752 76.458 29.8154C75.9014 30.0557 75.2627 30.1758 74.542 30.1758C73.8213 30.1758 73.1797 30.0557 72.6172 29.8154C72.0605 29.5752 71.5889 29.2383 71.2021 28.8047C70.8213 28.3652 70.5312 27.8525 70.332 27.2666C70.1328 26.6748 70.0332 26.0332 70.0332 25.3418ZM72.5645 25.1572V25.3418C72.5645 25.7402 72.5996 26.1123 72.6699 26.458C72.7402 26.8037 72.8516 27.1084 73.0039 27.3721C73.1621 27.6299 73.3672 27.832 73.6191 27.9785C73.8711 28.125 74.1787 28.1982 74.542 28.1982C74.8936 28.1982 75.1953 28.125 75.4473 27.9785C75.6992 27.832 75.9014 27.6299 76.0537 27.3721C76.2061 27.1084 76.3174 26.8037 76.3877 26.458C76.4639 26.1123 76.502 25.7402 76.502 25.3418V25.1572C76.502 24.7705 76.4639 24.4072 76.3877 24.0674C76.3174 23.7217 76.2031 23.417 76.0449 23.1533C75.8926 22.8838 75.6904 22.6729 75.4385 22.5205C75.1865 22.3682 74.8818 22.292 74.5244 22.292C74.167 22.292 73.8623 22.3682 73.6104 22.5205C73.3643 22.6729 73.1621 22.8838 73.0039 23.1533C72.8516 23.417 72.7402 23.7217 72.6699 24.0674C72.5996 24.4072 72.5645 24.7705 72.5645 25.1572ZM83.6914 28.1543L85.8008 20.4902H88.4463L85.2383 30H83.6387L83.6914 28.1543ZM82.2412 20.4902L84.3594 28.1631L84.4033 30H82.7949L79.5869 20.4902H82.2412ZM94.5723 27.8555V23.6191C94.5723 23.3145 94.5225 23.0537 94.4229 22.8369C94.3232 22.6143 94.168 22.4414 93.957 22.3184C93.752 22.1953 93.4854 22.1338 93.1572 22.1338C92.876 22.1338 92.6328 22.1836 92.4277 22.2832C92.2227 22.377 92.0645 22.5146 91.9531 22.6963C91.8418 22.8721 91.7861 23.0801 91.7861 23.3203H89.2549C89.2549 22.916 89.3486 22.5322 89.5361 22.1689C89.7236 21.8057 89.9961 21.4863 90.3535 21.2109C90.7109 20.9297 91.1357 20.71 91.6279 20.5518C92.126 20.3936 92.6826 20.3145 93.2979 20.3145C94.0361 20.3145 94.6924 20.4375 95.2666 20.6836C95.8408 20.9297 96.292 21.2988 96.6201 21.791C96.9541 22.2832 97.1211 22.8984 97.1211 23.6367V27.7061C97.1211 28.2275 97.1533 28.6553 97.2178 28.9893C97.2822 29.3174 97.376 29.6045 97.499 29.8506V30H94.9414C94.8184 29.7422 94.7246 29.4199 94.6602 29.0332C94.6016 28.6406 94.5723 28.248 94.5723 27.8555ZM94.9062 24.208L94.9238 25.6406H93.5088C93.1748 25.6406 92.8848 25.6787 92.6387 25.7549C92.3926 25.8311 92.1904 25.9395 92.0322 26.0801C91.874 26.2148 91.7568 26.373 91.6807 26.5547C91.6104 26.7363 91.5752 26.9355 91.5752 27.1523C91.5752 27.3691 91.625 27.5654 91.7246 27.7412C91.8242 27.9111 91.9678 28.0459 92.1553 28.1455C92.3428 28.2393 92.5625 28.2861 92.8145 28.2861C93.1953 28.2861 93.5264 28.21 93.8076 28.0576C94.0889 27.9053 94.3057 27.7178 94.458 27.4951C94.6162 27.2725 94.6982 27.0615 94.7041 26.8623L95.3721 27.9346C95.2783 28.1748 95.1494 28.4238 94.9854 28.6816C94.8271 28.9395 94.625 29.1826 94.3789 29.4111C94.1328 29.6338 93.8369 29.8184 93.4912 29.9648C93.1455 30.1055 92.7354 30.1758 92.2607 30.1758C91.6572 30.1758 91.1094 30.0557 90.6172 29.8154C90.1309 29.5693 89.7441 29.2324 89.457 28.8047C89.1758 28.3711 89.0352 27.8789 89.0352 27.3281C89.0352 26.8301 89.1289 26.3877 89.3164 26.001C89.5039 25.6143 89.7793 25.2891 90.1426 25.0254C90.5117 24.7559 90.9717 24.5537 91.5225 24.4189C92.0732 24.2783 92.7119 24.208 93.4385 24.208H94.9062ZM105.893 26.6514C105.893 26.4229 105.857 26.2178 105.787 26.0361C105.723 25.8486 105.6 25.6787 105.418 25.5264C105.236 25.3682 104.981 25.2129 104.653 25.0605C104.325 24.9082 103.9 24.75 103.379 24.5859C102.799 24.3984 102.248 24.1875 101.727 23.9531C101.211 23.7188 100.754 23.4463 100.355 23.1357C99.9629 22.8193 99.6523 22.4531 99.4238 22.0371C99.2012 21.6211 99.0898 21.1377 99.0898 20.5869C99.0898 20.0537 99.207 19.5703 99.4414 19.1367C99.6758 18.6973 100.004 18.3223 100.426 18.0117C100.848 17.6953 101.346 17.4521 101.92 17.2822C102.5 17.1123 103.136 17.0273 103.827 17.0273C104.771 17.0273 105.594 17.1973 106.297 17.5371C107 17.877 107.545 18.3428 107.932 18.9346C108.324 19.5264 108.521 20.2031 108.521 20.9648H105.901C105.901 20.5898 105.822 20.2617 105.664 19.9805C105.512 19.6934 105.277 19.4678 104.961 19.3037C104.65 19.1396 104.258 19.0576 103.783 19.0576C103.326 19.0576 102.945 19.1279 102.641 19.2686C102.336 19.4033 102.107 19.5879 101.955 19.8223C101.803 20.0508 101.727 20.3086 101.727 20.5957C101.727 20.8125 101.779 21.0088 101.885 21.1846C101.996 21.3604 102.16 21.5244 102.377 21.6768C102.594 21.8291 102.86 21.9727 103.177 22.1074C103.493 22.2422 103.859 22.374 104.275 22.5029C104.973 22.7139 105.585 22.9512 106.112 23.2148C106.646 23.4785 107.091 23.7744 107.448 24.1025C107.806 24.4307 108.075 24.8027 108.257 25.2188C108.438 25.6348 108.529 26.1064 108.529 26.6338C108.529 27.1904 108.421 27.6885 108.204 28.1279C107.987 28.5674 107.674 28.9395 107.264 29.2441C106.854 29.5488 106.364 29.7803 105.796 29.9385C105.228 30.0967 104.592 30.1758 103.889 30.1758C103.256 30.1758 102.632 30.0938 102.017 29.9297C101.401 29.7598 100.842 29.5049 100.338 29.165C99.8398 28.8252 99.4414 28.3916 99.1426 27.8643C98.8438 27.3369 98.6943 26.7129 98.6943 25.9922H101.34C101.34 26.3906 101.401 26.7275 101.524 27.0029C101.647 27.2783 101.82 27.501 102.043 27.6709C102.271 27.8408 102.541 27.9639 102.852 28.04C103.168 28.1162 103.514 28.1543 103.889 28.1543C104.346 28.1543 104.721 28.0898 105.014 27.9609C105.312 27.832 105.532 27.6533 105.673 27.4248C105.819 27.1963 105.893 26.9385 105.893 26.6514ZM115.789 27.7236V20.4902H118.32V30H115.938L115.789 27.7236ZM116.07 25.7725L116.817 25.7549C116.817 26.3877 116.744 26.9766 116.598 27.5215C116.451 28.0605 116.231 28.5293 115.938 28.9277C115.646 29.3203 115.276 29.6279 114.831 29.8506C114.386 30.0674 113.861 30.1758 113.258 30.1758C112.795 30.1758 112.367 30.1113 111.975 29.9824C111.588 29.8477 111.254 29.6396 110.973 29.3584C110.697 29.0713 110.48 28.7051 110.322 28.2598C110.17 27.8086 110.094 27.2666 110.094 26.6338V20.4902H112.625V26.6514C112.625 26.9326 112.657 27.1699 112.722 27.3633C112.792 27.5566 112.889 27.7148 113.012 27.8379C113.135 27.9609 113.278 28.0488 113.442 28.1016C113.612 28.1543 113.8 28.1807 114.005 28.1807C114.526 28.1807 114.937 28.0752 115.235 27.8643C115.54 27.6533 115.754 27.3662 115.877 27.0029C116.006 26.6338 116.07 26.2236 116.07 25.7725ZM122.926 20.4902V30H120.386V20.4902H122.926ZM120.228 18.0117C120.228 17.6426 120.356 17.3379 120.614 17.0977C120.872 16.8574 121.218 16.7373 121.651 16.7373C122.079 16.7373 122.422 16.8574 122.68 17.0977C122.943 17.3379 123.075 17.6426 123.075 18.0117C123.075 18.3809 122.943 18.6855 122.68 18.9258C122.422 19.166 122.079 19.2861 121.651 19.2861C121.218 19.2861 120.872 19.166 120.614 18.9258C120.356 18.6855 120.228 18.3809 120.228 18.0117ZM129.676 20.4902V22.2832H124.139V20.4902H129.676ZM125.51 18.1436H128.041V27.1348C128.041 27.4102 128.076 27.6211 128.146 27.7676C128.223 27.9141 128.334 28.0166 128.48 28.0752C128.627 28.1279 128.812 28.1543 129.034 28.1543C129.192 28.1543 129.333 28.1484 129.456 28.1367C129.585 28.1191 129.693 28.1016 129.781 28.084L129.79 29.9473C129.573 30.0176 129.339 30.0732 129.087 30.1143C128.835 30.1553 128.557 30.1758 128.252 30.1758C127.695 30.1758 127.209 30.085 126.793 29.9033C126.383 29.7158 126.066 29.417 125.844 29.0068C125.621 28.5967 125.51 28.0576 125.51 27.3896V18.1436ZM135.494 30.1758C134.756 30.1758 134.094 30.0586 133.508 29.8242C132.922 29.584 132.424 29.2529 132.014 28.8311C131.609 28.4092 131.299 27.9199 131.082 27.3633C130.865 26.8008 130.757 26.2031 130.757 25.5703V25.2188C130.757 24.498 130.859 23.8389 131.064 23.2412C131.27 22.6436 131.562 22.125 131.943 21.6855C132.33 21.2461 132.799 20.9092 133.35 20.6748C133.9 20.4346 134.521 20.3145 135.213 20.3145C135.887 20.3145 136.484 20.4258 137.006 20.6484C137.527 20.8711 137.964 21.1875 138.315 21.5977C138.673 22.0078 138.942 22.5 139.124 23.0742C139.306 23.6426 139.396 24.2754 139.396 24.9727V26.0273H131.838V24.3398H136.909V24.1465C136.909 23.7949 136.845 23.4814 136.716 23.2061C136.593 22.9248 136.405 22.7021 136.153 22.5381C135.901 22.374 135.579 22.292 135.187 22.292C134.853 22.292 134.565 22.3652 134.325 22.5117C134.085 22.6582 133.889 22.8633 133.736 23.127C133.59 23.3906 133.479 23.7012 133.402 24.0586C133.332 24.4102 133.297 24.7969 133.297 25.2188V25.5703C133.297 25.9512 133.35 26.3027 133.455 26.625C133.566 26.9473 133.722 27.2256 133.921 27.46C134.126 27.6943 134.372 27.876 134.659 28.0049C134.952 28.1338 135.283 28.1982 135.652 28.1982C136.109 28.1982 136.534 28.1104 136.927 27.9346C137.325 27.7529 137.668 27.4805 137.955 27.1172L139.186 28.4531C138.986 28.7402 138.714 29.0156 138.368 29.2793C138.028 29.543 137.618 29.7598 137.138 29.9297C136.657 30.0938 136.109 30.1758 135.494 30.1758Z" fill="white"/>
<defs>
<linearGradient id="paint0_linear_9_102" x1="14.7836" y1="8.10223" x2="28.0737" y2="16.2183" gradientUnits="userSpaceOnUse">
<stop stop-color="#4285EB"/>
<stop offset="1" stop-color="#2EC7FF"/>
</linearGradient>
<linearGradient id="paint1_linear_9_102" x1="16.5661" y1="8.10223" x2="10.0021" y2="42.0272" gradientUnits="userSpaceOnUse">
<stop stop-color="#29CDFF"/>
<stop offset="0.378601" stop-color="#148EFF"/>
<stop offset="1" stop-color="#0A60FF"/>
</linearGradient>
<linearGradient id="paint2_linear_9_102" x1="29.5314" y1="16.2439" x2="20.9905" y2="29.6012" gradientUnits="userSpaceOnUse">
<stop stop-color="#FA816E"/>
<stop offset="0.414726" stop-color="#F74A5C"/>
<stop offset="1" stop-color="#F51D2C"/>
</linearGradient>
<linearGradient id="paint3_linear_9_102" x1="17.4521" y1="17.6037" x2="14.6103" y2="28.9714" gradientUnits="userSpaceOnUse">
<stop stop-color="#FA8E7D"/>
<stop offset="0.512635" stop-color="#F74A5C"/>
<stop offset="1" stop-color="#F51D2C"/>
</linearGradient>
<clipPath id="clip0_9_102">
<rect width="32" height="32" fill="white" transform="translate(0 8)"/>
</clipPath>
</defs>
</svg>
